<?xml version="1.0" standalone="no"?>
<!DOCTYPE svg PUBLIC "-//W3C//DTD SVG 20010904//EN"
 "http://www.w3.org/TR/2001/REC-SVG-20010904/DTD/svg10.dtd">
<svg version="1.0" xmlns="http://www.w3.org/2000/svg"
 width="1200.000000pt" height="388.000000pt" viewBox="0 0 1200.000000 388.000000"
 preserveAspectRatio="xMidYMid meet">

<g transform="translate(0.000000,388.000000) scale(0.100000,-0.100000)"
fill="#000000" stroke="none">
<path d="M3 2583 c5 -564 7 -588 67 -783 62 -202 160 -363 314 -516 360 -358
954 -545 1844 -580 l173 -7 -4 834 c-3 828 -3 835 -25 919 -59 221 -206 415
-402 530 -65 38 -130 65 -225 93 -68 20 -95 21 -908 24 l-838 4 4 -518z m1037
37 c20 -20 20 -33 20 -654 l0 -635 -22 -15 c-33 -23 -64 -20 -87 10 -19 25
-20 39 -21 645 l-1 619 25 25 c30 30 59 32 86 5z m202 -227 c17 -15 18 -42 18
-424 0 -448 1 -439 -60 -439 -61 0 -60 -8 -60 437 0 364 2 408 17 425 20 22
61 23 85 1z m408 -3 c19 -19 20 -33 20 -418 0 -445 0 -442 -65 -442 -65 0 -65
-3 -65 442 0 385 1 399 20 418 11 11 31 20 45 20 14 0 34 -9 45 -20z m-810
-110 c19 -19 20 -33 20 -310 0 -277 -1 -291 -20 -310 -11 -11 -31 -20 -45 -20
-14 0 -34 9 -45 20 -19 19 -20 33 -20 304 0 271 1 284 21 310 25 31 61 34 89
6z m610 -116 c12 -12 15 -48 15 -195 0 -178 0 -181 -24 -200 -30 -24 -56 -24
-81 1 -19 19 -20 33 -20 198 0 97 4 182 8 188 23 34 71 37 102 8z m-810 -114
c15 -15 20 -33 20 -78 0 -73 -18 -102 -65 -102 -46 0 -65 29 -65 100 0 68 19
100 61 100 16 0 38 -9 49 -20z m1214 -2 c22 -31 22 -135 -1 -160 -23 -26 -78
-24 -97 4 -24 34 -21 133 4 158 27 27 75 26 94 -2z"/>
</g>
</svg>
